<?xml version="1.0" encoding="UTF-8"?>
<svg id="Layer_1" data-name="Layer 1" xmlns="http://www.w3.org/2000/svg" viewBox="0 0 340.16 382.44">
  <defs>
    <style>
      .cls-1 {
        fill: #662d91;
      }

      .cls-2 {
        fill: #abe1fa;
      }

      .cls-3 {
        fill: #293377;
      }
    </style>
  </defs>
  <g>
    <path class="cls-2" d="M122.89,148.93v124.45c0,1.03-.82,1.86-1.86,1.86h-55.7c-33.58,.9-55.02-39.67-35.73-66.98,.28-.4,.55-.79,.83-1.18h0c1.13-1.58,2.36-3.07,3.7-4.46h0c6.7-7.69,17.27-11.3,26.9-14.18,1.01-.3,1.57-1.37,1.25-2.36-3.01-9.25-6.07-19.63-4.92-29.3,.18-2.26,.5-4.51,.97-6.72-.01-.01,0-.02,0-.02,.5-2.49,1.18-4.92,2.05-7.29,7.84-3.23,16.43-5.01,25.44-5.01,13.71,0,26.46,4.12,37.07,11.19Z"/>
    <path class="cls-2" d="M305.75,258.73c-.53,.58-1.08,1.14-1.64,1.7-.04,.03-.07,.06-.1,.1-17.25,21.37-60.43,13.49-85.03,14.6-1.07,.05-1.95-.8-1.95-1.86v-53.59s0-.06,0-.09v-36.88c6.51,8.2,10.39,18.58,10.39,29.86,0,.47-.01,.94-.03,1.41,5.98-1.97,12.38-3.04,19.02-3.04,29.09,0,53.41,20.46,59.33,47.79Z"/>
  </g>
  <path class="cls-3" d="M320.36,276.1s-.07,.07-.1,.11c-4.32,5.37-9.61,9.46-15.58,12.56-26.63,13.86-66.71,8.09-93.37,9.05-9.29,0-16.86-7.56-16.86-16.86v-84.16h0v-42.63c0-3.07,2.49-5.56,5.56-5.56h11.45c3.07,0,5.57,2.49,5.57,5.56v65.42s0,.06,0,.09v53.59c0,1.06,.88,1.91,1.95,1.86,24.6-1.11,67.78,6.77,85.03-14.6,.03-.04,.06-.07,.1-.1,.56-.56,1.11-1.12,1.64-1.7,23.32-25.59,10.03-70.09-23.91-78.45-13.51-4.3-27.72,.47-40.63,4.97-1.25,.44-2.53-.52-2.47-1.83,.3-6.48,1.14-16.96-.12-21.72-2.34-11.62-10.57-21.59-21.59-26.03v.03c-6.84-2.87-15.26-3.5-22.58-1.53h0c-4.57,1.19-8.93,3.27-12.69,6.15-.17,.12-.33,.25-.5,.38h0c-.71,.51-4.33,3.82-7.68,6.89-2.79,2.57-7.29,1.67-8.84-1.79-8.15-18.29-20.73-33.78-41.85-37.85v-.02c-7.36-1.54-15.08-1.56-22.45,0-18.25,3.64-33.79,17.43-40.06,34.82-.87,2.37-1.55,4.8-2.05,7.29,0,0-.01,0,0,.02-.47,2.21-.79,4.46-.97,6.72-1.15,9.67,1.91,20.05,4.92,29.3,.32,.99-.24,2.06-1.25,2.36-9.63,2.88-20.2,6.49-26.9,14.17h0c-1.34,1.4-2.57,2.89-3.7,4.46h0c-.28,.4-.55,.79-.83,1.19-19.29,27.31,2.15,67.88,35.73,66.98h55.7c1.04,0,1.86-.83,1.86-1.86V143.78c0-3.07,2.5-5.56,5.57-5.56h11.45c3.07,0,5.57,2.49,5.57,5.56v78.86s0,.07,0,.1v58.22c0,9.29-7.53,16.84-16.8,16.86h-.11c-31.59-1.69-86.4,8.39-109.7-19.79-.04-.05-.07-.09-.11-.13C7.15,266.92,1.16,252.33,.16,237.4c-1.4-20.63,6.71-41.94,22.66-55.4,3.48-2.94,7.33-5.51,11.54-7.61,.74-.37,1.15-1.18,1.01-2.01-.61-3.53-.94-7.04-.99-10.53-.79-44.98,42.84-84.96,88.51-76.84v-28.93c0-3.07,2.49-5.56,5.57-5.56h11.45c3.08,0,5.56,2.49,5.56,5.56v35.94c4.68,2.29,9.1,5.07,13.21,8.25V30.83c0-3.07,2.49-5.56,5.56-5.56h11.46c3.07,0,5.56,2.49,5.56,5.56V114.8c4.22-1.73,8.65-2.96,13.19-3.66V5.57c0-3.07,2.49-5.57,5.57-5.57h11.45c3.08,0,5.56,2.5,5.56,5.57V112.03c21.37,5.06,38.04,21.74,43.22,42.91,.22,.93,1.1,1.54,2.05,1.43,64.03-7.3,103.95,73.54,58.06,119.73Z"/>
  <path class="cls-1" d="M287.98,335.05c-14.92,4.77-36.76,10.64-50.36,9.28-31.74-3.17-40.29-21.69-42.9-31.37-.66-2.45-2.85-4.17-5.39-4.17h-8.08v-61.41s0-.06,0-.09v-76.93c0-3.07-2.49-5.57-5.57-5.57h-11.45c-3.07,0-5.57,2.49-5.57,5.57v26.43h0v112h-8.07c-2.53,0-4.73,1.72-5.39,4.17-2.62,9.69-11.16,28.2-42.9,31.37-13.61,1.36-35.44-4.51-50.36-9.28-3.4-1.09-5.59,3.51-2.62,5.49,16.89,11.24,50.9,27.2,109.34,29.05v7.29c0,3.07,2.49,5.57,5.57,5.57h11.46c3.07,0,5.56-2.49,5.56-5.57v-7.29c58.45-1.85,92.46-17.81,109.35-29.05,2.97-1.98,.79-6.58-2.62-5.49Z"/>
</svg>