<svg id="Layer_1" data-name="Layer 1" xmlns="http://www.w3.org/2000/svg" xmlns:xlink="http://www.w3.org/1999/xlink" viewBox="0 0 623.62 595.28"><defs><style>.cls-1{fill:url(#linear-gradient);}.cls-2{fill:url(#linear-gradient-2);}.cls-3{fill:url(#linear-gradient-3);}.cls-4{fill:url(#linear-gradient-4);}.cls-5{fill:url(#linear-gradient-5);}.cls-6{fill:url(#linear-gradient-6);}.cls-7{fill:url(#linear-gradient-7);}.cls-8{fill:url(#linear-gradient-8);}.cls-9{fill:url(#linear-gradient-9);}.cls-10{fill:url(#linear-gradient-10);}.cls-11{fill:url(#linear-gradient-11);}.cls-12{fill:url(#linear-gradient-12);}</style><linearGradient id="linear-gradient" x1="202.84" y1="318.99" x2="340.13" y2="81.21" gradientUnits="userSpaceOnUse"><stop offset="0" stop-color="#8dad09"/><stop offset="0.82" stop-color="#b8dd19"/></linearGradient><linearGradient id="linear-gradient-2" x1="283.49" y1="417.5" x2="420.78" y2="179.72" gradientUnits="userSpaceOnUse"><stop offset="0.01" stop-color="#182277"/><stop offset="0.78" stop-color="#00bdff"/></linearGradient><linearGradient id="linear-gradient-3" x1="99.72" y1="482.09" x2="99.72" y2="423.13" gradientUnits="userSpaceOnUse"><stop offset="0.02" stop-color="#182277"/><stop offset="0.78" stop-color="#00bdff"/></linearGradient><linearGradient id="linear-gradient-4" x1="303.65" y1="482.09" x2="303.65" y2="439.88" xlink:href="#linear-gradient-3"/><linearGradient id="linear-gradient-5" x1="405.02" y1="482.09" x2="405.02" y2="423.13" xlink:href="#linear-gradient"/><linearGradient id="linear-gradient-6" x1="447.25" y1="482.09" x2="447.25" y2="439.88" xlink:href="#linear-gradient"/><linearGradient id="linear-gradient-7" x1="534.11" y1="482.09" x2="534.11" y2="439.88" xlink:href="#linear-gradient"/><linearGradient id="linear-gradient-8" x1="139.8" y1="492.14" x2="139.8" y2="439.88" xlink:href="#linear-gradient-3"/><linearGradient id="linear-gradient-9" x1="182.35" y1="482.09" x2="182.35" y2="439.88" xlink:href="#linear-gradient-3"/><linearGradient id="linear-gradient-10" x1="243.56" y1="482.09" x2="243.56" y2="423.13" xlink:href="#linear-gradient-3"/><linearGradient id="linear-gradient-11" x1="344.67" y1="482.09" x2="344.67" y2="439.88" xlink:href="#linear-gradient-3"/><linearGradient id="linear-gradient-12" x1="493.78" y1="482.09" x2="493.78" y2="423.13" xlink:href="#linear-gradient"/></defs><polygon class="cls-1" points="249.76 249.39 307.11 150.07 369.01 150.07 391.61 110.93 254.33 110.93 185.68 229.82 254.33 348.71 311.67 249.39 249.76 249.39"/><polygon class="cls-2" points="369.3 149.99 311.66 249.82 312.02 249.82 354.81 249.82 373.92 249.82 316.58 349.14 297.46 349.14 254.68 349.14 254.32 349.14 232.01 387.78 369.3 387.78 437.94 268.88 369.3 149.99"/><path class="cls-3" d="M110,446.58q11.44,0,8.77,12.73l-2.21,10.18q-2.67,12.6-14.13,12.6H75.93l1.88-8.71h26.53c2.41,0,3.89-1.3,4.42-3.89L111,459.31q.87-4-2.74-4H90.14q-11.46,0-8.78-12.73l1.41-6.7q2.74-12.74,14.2-12.73H123.5l-1.87,8.71H95.1c-2.42,0-3.91,1.34-4.49,4l-1.41,6.7c-.58,2.68.33,4,2.75,4Z"/><path class="cls-4" d="M317.74,482.09H309.9l6.29-29.48q.87-4-2.74-4H297.77l-7.17,33.5h-7.84l9-42.21h23.52q11.46,0,8.77,12.73Z"/><path class="cls-5" d="M415.33,446.58q11.46,0,8.78,12.73l-2.21,10.18q-2.68,12.6-14.14,12.6H381.23l1.88-8.71h26.53c2.41,0,3.89-1.3,4.42-3.89l2.21-10.18q.87-4-2.74-4h-18.1q-11.44,0-8.77-12.73l1.41-6.7q2.74-12.74,14.2-12.73H428.8l-1.87,8.71H400.39q-3.61,0-4.49,4l-1.4,6.7q-.87,4,2.74,4Z"/><path class="cls-6" d="M431.55,452.61q2.67-12.74,14.13-12.73h12.07q11.44,0,8.77,12.73l-3.62,16.88q-2.67,12.6-14.13,12.6H436.71q-11.46,0-8.71-12.73Zm19.09,20.77c2.41,0,3.89-1.3,4.42-3.89l3.62-16.88q.87-4-2.74-4H443.88c-2.42,0-3.91,1.34-4.49,4l-3.55,16.75q-.87,4,2.74,4Z"/><path class="cls-7" d="M528.36,482.09h-7.84l6.3-29.48q2.68-12.74,14.14-12.73h6.73l-1.81,8.71h-6.73q-3.61,0-4.49,4Z"/><path class="cls-8" d="M152.45,439.88H140.39q-11.46,0-14.14,12.73l-8.37,39.53h7.83l8.38-39.53q.87-4,4.49-4h12.06c2.41,0,3.32,1.34,2.75,4l-3.56,16.75q-.87,4-4.48,4H132.88L131,482.09h12.47q11.46,0,14.2-12.73l3.55-16.75Q163.9,439.88,152.45,439.88Z"/><path class="cls-9" d="M192.85,439.88h-20.5l-1.81,8.71H191q3.61,0,2.75,4l-.27,1.24h0l-2.47,11.48h0l-.86,4q-.87,4-4.48,4H173.69c-2.42,0-3.33-1.34-2.75-4v-.14q.87-3.89,4.49-3.88H188l1.87-8.71H177.24q-11.46,0-14.14,12.59v.14q-2.74,12.74,8.71,12.73h12.06q11.46,0,14.2-12.73l3.56-16.75Q204.3,439.88,192.85,439.88Z"/><path class="cls-10" d="M274.25,439.88H245.36l3.57-16.75h-7.84l-3.57,16.75H221.79q-11.46,0-14.14,12.73l-3.55,16.75q-2.74,12.74,8.71,12.73h12.06q11.46,0,14.21-12.73l4.42-20.77h28.94c2.42,0,3.33,1.34,2.75,4l-.85,4h-.07l-1.87,8.71h.09l-.85,4q-.87,4-4.49,4H255.09q-3.61,0-2.75-4v-.14q.87-3.89,4.49-3.88h12.5l1.88-8.71H258.64q-11.46,0-14.14,12.59v.14q-2.75,12.74,8.71,12.73h12.06q11.46,0,14.21-12.73L283,452.61Q285.72,439.88,274.25,439.88Zm-43,29.48q-.87,4-4.49,4H214.69q-3.62,0-2.75-4l3.55-16.75q.87-4,4.49-4h15.68Z"/><path class="cls-11" d="M355.17,439.88h-20.5l-1.81,8.71h20.5q3.61,0,2.75,4l-.86,4h0l-1.87,8.71h.06l-.85,4c-.59,2.68-2.08,4-4.49,4H336c-2.42,0-3.33-1.34-2.75-4v-.14q.87-3.89,4.49-3.88h12.53l1.87-8.71H339.56q-11.46,0-14.14,12.59v.14q-2.75,12.74,8.71,12.73h12.06q11.46,0,14.2-12.73L364,452.61Q366.62,439.88,355.17,439.88Z"/><path class="cls-12" d="M512,439.88h-28.9l3.58-16.75h-7.84l-12.6,59h7.84l7.16-33.5h29q3.62,0,2.74,4l-.85,4h0l-1.87,8.71h.06l-.85,4q-.87,4-4.49,4H492.85c-2.41,0-3.33-1.34-2.74-4v-.14q.87-3.89,4.48-3.88h12.53l1.87-8.71H496.4q-11.44,0-14.13,12.59v.14q-2.76,12.74,8.71,12.73H503q11.44,0,14.2-12.73l3.55-16.75Q523.48,439.88,512,439.88Z"/></svg>