<svg id="Layer_1" data-name="Layer 1" xmlns="http://www.w3.org/2000/svg" viewBox="0 0 623.62 595.28"><defs><style>.cls-1{fill:#fff;}</style></defs><polygon class="cls-1" points="249.76 249.39 307.11 150.07 369.01 150.07 391.61 110.93 254.33 110.93 185.68 229.82 254.33 348.71 311.67 249.39 249.76 249.39"/><polygon class="cls-1" points="369.3 149.99 311.66 249.82 312.02 249.82 354.81 249.82 373.92 249.82 316.58 349.14 297.46 349.14 254.68 349.14 254.32 349.14 232.01 387.78 369.3 387.78 437.94 268.88 369.3 149.99"/><polygon class="cls-1" points="422.42 487.88 431.94 487.88 430.07 496.53 420.56 496.53 422.42 487.88"/><polygon class="cls-1" points="410.14 481.15 408.52 488.7 431.76 488.7 433.39 481.15 410.14 481.15"/><path class="cls-1" d="M115.8,449.33l-6.9,31.59a4.06,4.06,0,0,1-3.53,3H84.3l-1.87,8.87h22.94a12.9,12.9,0,0,0,12.22-10.08l7.29-33.37Z"/><path class="cls-1" d="M274.94,440.44l-3.86,19.73a7.5,7.5,0,0,1-2.66,4.51,7.74,7.74,0,0,1-4.92,1.59,5.66,5.66,0,0,1-3.91-1.3c-.93-.8-1.16-2.34-.68-4.56l4.06-20h-8.61l-4,19.73c-.89,4.1-3.72,6.1-8.67,6.1a8.48,8.48,0,0,1-2.45-.34,4.61,4.61,0,0,1-1.86-1,3.8,3.8,0,0,1-1-1.76,5.64,5.64,0,0,1,0-2.77l4.05-20h-8.61l-4,19.73c-.88,4.1-3.51,6.1-8,6.1H204l.66-3.23,2.27-10.7a9.93,9.93,0,0,0-1.87-8.38,9.71,9.71,0,0,0-7.62-3.51h-20.8l-7.37,34.79h20.28l1.75-8.87H180.22l3.61-17h13.61a1,1,0,0,1,.73.22,1.26,1.26,0,0,1,.08.95l-1.39,6.57h0l-.86,4.18L193.92,471l-.68,3.42h0l-.16.78V475l-.06.29h0L192,480.92a4.06,4.06,0,0,1-3.52,3H167.35l-1.86,8.87h22.94a12.89,12.89,0,0,0,12.21-10.08l1.52-7.42h15.65a18.06,18.06,0,0,0,6.45-1.2,14.55,14.55,0,0,0,5.51-4,7.34,7.34,0,0,0,3.84,4,18.13,18.13,0,0,0,13,0,14.36,14.36,0,0,0,5.69-4,7.44,7.44,0,0,0,3.75,4,14.58,14.58,0,0,0,6,1.21,17.54,17.54,0,0,0,11.31-3.75,18.27,18.27,0,0,0,6.18-10.76l4-20.33Z"/><path class="cls-1" d="M164.89,424.39l-7.59,36.68A6.21,6.21,0,0,1,155,464.9a7.77,7.77,0,0,1-4.8,1.37h-10l8.7-41.88h-8.61l-8.75,41.87h-4.8l-2,9H149.3a18.43,18.43,0,0,0,5.48-.83,15.75,15.75,0,0,0,4.87-2.51,16.36,16.36,0,0,0,3.81-4.12,16.84,16.84,0,0,0,2.31-5.71l7.82-37.72Z"/><polygon class="cls-1" points="324.51 440.38 333.52 440.38 335.23 432.46 326.22 432.46 324.51 440.38"/><path class="cls-1" d="M335.83,460.17a7.41,7.41,0,0,1-2.7,4.51,8.3,8.3,0,0,1-5.16,1.59H317.89c-2,0-3.22-.58-3.82-1.76a7.66,7.66,0,0,1-.28-5.09l7.24-35h-8.61l-7.53,36.41a19,19,0,0,0-.43,6.8,9.33,9.33,0,0,0,1.89,4.52,7.75,7.75,0,0,0,3.72,2.47,15.9,15.9,0,0,0,4.75.69h12a17.5,17.5,0,0,0,11.36-3.75,18.37,18.37,0,0,0,6.13-10.76l4-20.33h-8.61Z"/><polygon class="cls-1" points="359.37 424.39 348.73 475.29 357.33 475.29 367.97 424.39 359.37 424.39"/><path class="cls-1" d="M392.08,440.44h-20.8l-1.88,8.88h22.68a1,1,0,0,1,.73.22,1.22,1.22,0,0,1,.08.95l-1.39,6.57h0l-.86,4.18-1.08,5.13H374.86v0h-9.07l-1.88,8.89h23.84v0h9.05l1.84-9,.66-3.23,2.27-10.7A9.93,9.93,0,0,0,399.7,444,9.7,9.7,0,0,0,392.08,440.44Z"/><path class="cls-1" d="M508.39,460.17a7.5,7.5,0,0,1-2.66,4.51,7.75,7.75,0,0,1-4.93,1.59,5.66,5.66,0,0,1-3.9-1.3c-.93-.8-1.16-2.34-.68-4.56l4.06-20h-8.61l-4,19.73c-.89,4.1-3.72,6.1-8.68,6.1a8.51,8.51,0,0,1-2.44-.34,4.61,4.61,0,0,1-1.86-1,3.8,3.8,0,0,1-1-1.76,5.64,5.64,0,0,1,0-2.77l4.05-20h-8.61l-4,19.73c-.88,4.1-3.51,6.1-8,6.1h-6.18a8.51,8.51,0,0,1-2.44-.34,4.51,4.51,0,0,1-1.85-1,3.45,3.45,0,0,1-1-1.74,6.19,6.19,0,0,1,.07-2.79l3.91-20H441l-3.86,19.73c-.88,4.1-3.48,6.1-7.94,6.1H419c-2,0-3.22-.58-3.82-1.76a7.67,7.67,0,0,1-.27-5.09l7.24-35h-8.61L406,460.8a18.74,18.74,0,0,0-.43,6.8,9.29,9.29,0,0,0,1.89,4.52,7.75,7.75,0,0,0,3.72,2.47,15.9,15.9,0,0,0,4.75.69H427.5a16.79,16.79,0,0,0,6.23-1.2,14.78,14.78,0,0,0,5.36-4,7.43,7.43,0,0,0,3.74,4,14.81,14.81,0,0,0,6.11,1.21h6.18a18.06,18.06,0,0,0,6.45-1.2,14.55,14.55,0,0,0,5.51-4,7.34,7.34,0,0,0,3.84,4,18.11,18.11,0,0,0,13,0,14.32,14.32,0,0,0,5.7-4,7.44,7.44,0,0,0,3.75,4,14.55,14.55,0,0,0,6,1.21,17.54,17.54,0,0,0,11.31-3.75,18.27,18.27,0,0,0,6.18-10.76l4-20.33h-8.6Z"/><polygon class="cls-1" points="532.58 424.39 521.94 475.29 530.55 475.29 541.19 424.39 532.58 424.39"/></svg>